<svg width="57" height="48" viewBox="0 0 57 48" fill="none" xmlns="http://www.w3.org/2000/svg">
<path d="M55.6626 14.3769H48.9974L47.1449 9.28111C45.2412 4.04201 40.6979 0.657471 35.569 0.657471H21.4303C16.3025 0.657471 11.7581 4.04201 9.85326 9.28111L8.00076 14.3769H1.33665C0.467174 14.3769 -0.170737 15.276 0.0407866 16.2033L0.708756 19.1432C0.856823 19.7973 1.3912 20.2567 2.00462 20.2567H4.23898C2.74384 21.6935 1.78085 23.7821 1.78085 26.1364V32.0162C1.78085 33.9908 2.46663 35.7731 3.5621 37.1524V43.7757C3.5621 45.9402 5.15743 47.6955 7.1246 47.6955H10.6871C12.6543 47.6955 14.2496 45.9402 14.2496 43.7757V39.8559H42.7497V43.7757C42.7497 45.9402 44.345 47.6955 46.3122 47.6955H49.8747C51.8418 47.6955 53.4372 45.9402 53.4372 43.7757V37.1524C54.5326 35.7743 55.2184 33.992 55.2184 32.0162V26.1364C55.2184 23.7821 54.2554 21.6935 52.7614 20.2567H54.9958C55.6092 20.2567 56.1436 19.7973 56.2916 19.1432L56.9596 16.2033C57.17 15.276 56.5321 14.3769 55.6626 14.3769ZM16.4684 12.1928C17.28 9.96096 19.2449 8.49715 21.4303 8.49715H35.569C37.7544 8.49715 39.7193 9.96096 40.5309 12.1928L42.7497 18.2967H14.2496L16.4684 12.1928ZM10.6871 31.9917C8.54961 31.9917 7.1246 30.4286 7.1246 28.0841C7.1246 25.7395 8.54961 24.1765 10.6871 24.1765C12.8246 24.1765 16.0309 27.6933 16.0309 30.0379C16.0309 32.3824 12.8246 31.9917 10.6871 31.9917ZM46.3122 31.9917C44.1747 31.9917 40.9684 32.3824 40.9684 30.0379C40.9684 27.6933 44.1747 24.1765 46.3122 24.1765C48.4497 24.1765 49.8747 25.7395 49.8747 28.0841C49.8747 30.4286 48.4497 31.9917 46.3122 31.9917Z" fill="#DB0303"/>
</svg>
