<svg width="36" height="36" viewBox="0 0 36 36" fill="none" xmlns="http://www.w3.org/2000/svg">
<path fill-rule="evenodd" clip-rule="evenodd" d="M9.48853 0.193359C10.2372 0.193359 10.844 0.796547 10.844 1.5406V2.88785H24.3991V1.5406C24.3991 0.796547 25.0061 0.193359 25.7546 0.193359C26.5031 0.193359 27.1101 0.796547 27.1101 1.5406V2.88785H31.1766C33.4224 2.88785 35.2431 4.69738 35.2431 6.92958V31.18C35.2431 33.4121 33.4224 35.2217 31.1766 35.2217H4.06651C1.82063 35.2217 0 33.4121 0 31.18V6.92958C0 4.69738 1.82063 2.88785 4.06651 2.88785H8.13303V1.5406C8.13303 0.796547 8.73992 0.193359 9.48853 0.193359ZM24.3991 5.58233V6.92958C24.3991 7.67363 25.0061 8.27682 25.7546 8.27682C26.5031 8.27682 27.1101 7.67363 27.1101 6.92958V5.58233H31.1766C31.9251 5.58233 32.5321 6.18552 32.5321 6.92958V10.9713H2.71101V6.92958C2.71101 6.18552 3.3179 5.58233 4.06651 5.58233H8.13303V6.92958C8.13303 7.67363 8.73992 8.27682 9.48853 8.27682C10.2372 8.27682 10.844 7.67363 10.844 6.92958V5.58233H24.3991ZM2.71101 13.6658V31.18C2.71101 31.9239 3.3179 32.5272 4.06651 32.5272H31.1766C31.9251 32.5272 32.5321 31.9239 32.5321 31.18V13.6658H2.71101ZM16.2661 17.7075C16.2661 16.9635 16.8729 16.3603 17.6216 16.3603C18.3702 16.3603 18.9771 16.9635 18.9771 17.7075C18.9771 18.4516 18.3702 19.0548 17.6216 19.0548C16.8729 19.0548 16.2661 18.4516 16.2661 17.7075ZM23.0436 16.3603C22.295 16.3603 21.6881 16.9635 21.6881 17.7075C21.6881 18.4516 22.295 19.0548 23.0436 19.0548C23.7922 19.0548 24.3991 18.4516 24.3991 17.7075C24.3991 16.9635 23.7922 16.3603 23.0436 16.3603ZM27.1101 17.7075C27.1101 16.9635 27.7171 16.3603 28.4656 16.3603C29.2141 16.3603 29.8211 16.9635 29.8211 17.7075C29.8211 18.4516 29.2141 19.0548 28.4656 19.0548C27.7171 19.0548 27.1101 18.4516 27.1101 17.7075ZM28.4656 21.7493C27.7171 21.7493 27.1101 22.3524 27.1101 23.0965C27.1101 23.8406 27.7171 24.4437 28.4656 24.4437C29.2141 24.4437 29.8211 23.8406 29.8211 23.0965C29.8211 22.3524 29.2141 21.7493 28.4656 21.7493ZM21.6881 23.0965C21.6881 22.3524 22.295 21.7493 23.0436 21.7493C23.7922 21.7493 24.3991 22.3524 24.3991 23.0965C24.3991 23.8406 23.7922 24.4437 23.0436 24.4437C22.295 24.4437 21.6881 23.8406 21.6881 23.0965ZM17.6216 21.7493C16.8729 21.7493 16.2661 22.3524 16.2661 23.0965C16.2661 23.8406 16.8729 24.4437 17.6216 24.4437C18.3702 24.4437 18.9771 23.8406 18.9771 23.0965C18.9771 22.3524 18.3702 21.7493 17.6216 21.7493ZM10.844 23.0965C10.844 22.3524 11.4509 21.7493 12.1995 21.7493C12.9482 21.7493 13.555 22.3524 13.555 23.0965C13.555 23.8406 12.9482 24.4437 12.1995 24.4437C11.4509 24.4437 10.844 23.8406 10.844 23.0965ZM6.77752 21.7493C6.02891 21.7493 5.42202 22.3524 5.42202 23.0965C5.42202 23.8406 6.02891 24.4437 6.77752 24.4437C7.52614 24.4437 8.13303 23.8406 8.13303 23.0965C8.13303 22.3524 7.52614 21.7493 6.77752 21.7493ZM5.42202 28.4855C5.42202 27.7415 6.02891 27.1382 6.77752 27.1382C7.52614 27.1382 8.13303 27.7415 8.13303 28.4855C8.13303 29.2294 7.52614 29.8327 6.77752 29.8327C6.02891 29.8327 5.42202 29.2294 5.42202 28.4855ZM12.1995 27.1382C11.4509 27.1382 10.844 27.7415 10.844 28.4855C10.844 29.2294 11.4509 29.8327 12.1995 29.8327C12.9482 29.8327 13.555 29.2294 13.555 28.4855C13.555 27.7415 12.9482 27.1382 12.1995 27.1382ZM16.2661 28.4855C16.2661 27.7415 16.8729 27.1382 17.6216 27.1382C18.3702 27.1382 18.9771 27.7415 18.9771 28.4855C18.9771 29.2294 18.3702 29.8327 17.6216 29.8327C16.8729 29.8327 16.2661 29.2294 16.2661 28.4855ZM23.0436 27.1382C22.295 27.1382 21.6881 27.7415 21.6881 28.4855C21.6881 29.2294 22.295 29.8327 23.0436 29.8327C23.7922 29.8327 24.3991 29.2294 24.3991 28.4855C24.3991 27.7415 23.7922 27.1382 23.0436 27.1382Z" fill="#545252"/>
</svg>
