<svg width="45" height="45" viewBox="0 0 45 45" fill="none" xmlns="http://www.w3.org/2000/svg">
<path d="M31.0078 17.4144C31.8158 16.6613 31.8604 15.3958 31.1072 14.5877C30.3542 13.7797 29.0886 13.7352 28.2806 14.4883L22.4284 19.9427L16.9739 14.0905C16.2208 13.2825 14.9552 13.2379 14.1472 13.991C13.3392 14.7441 13.2946 16.0097 14.0477 16.8177L19.5022 22.6699L13.6499 28.1245C12.8419 28.8775 12.7974 30.1431 13.5505 30.9511C14.3036 31.7591 15.5691 31.8037 16.3772 31.0505L22.2294 25.5961L27.684 31.4483C28.437 32.2563 29.7026 32.3009 30.5106 31.5477C31.3186 30.7947 31.3632 29.5291 30.61 28.7211L25.1556 22.8689L31.0078 17.4144Z" fill="#DB0303"/>
<path fill-rule="evenodd" clip-rule="evenodd" d="M0.328979 22.7695C0.328979 10.6193 10.1787 0.769531 22.329 0.769531C34.4792 0.769531 44.329 10.6193 44.329 22.7695C44.329 34.9197 34.4792 44.7695 22.329 44.7695C10.1787 44.7695 0.328979 34.9197 0.328979 22.7695ZM22.329 40.7695C12.3879 40.7695 4.32898 32.7107 4.32898 22.7695C4.32898 12.8284 12.3879 4.76953 22.329 4.76953C32.2702 4.76953 40.329 12.8284 40.329 22.7695C40.329 32.7107 32.2702 40.7695 22.329 40.7695Z" fill="#DB0303"/>
</svg>
