<svg width="20" height="19" viewBox="0 0 20 19" fill="none" xmlns="http://www.w3.org/2000/svg">
<path d="M0 2.375C0 1.74511 0.210714 1.14102 0.585786 0.695621C0.960859 0.250222 1.46957 0 2 0H18C18.5304 0 19.0391 0.250222 19.4142 0.695621C19.7893 1.14102 20 1.74511 20 2.375V16.625C20 17.2549 19.7893 17.859 19.4142 18.3044C19.0391 18.7498 18.5304 19 18 19H2C1.46957 19 0.960859 18.7498 0.585786 18.3044C0.210714 17.859 0 17.2549 0 16.625V2.375ZM3.519 2.375L10 9.10931L16.481 2.375H3.519ZM18 3.95319L10.659 11.5817C10.4766 11.7714 10.2424 11.876 10 11.876C9.75755 11.876 9.52336 11.7714 9.341 11.5817L2 3.95319V16.625H18V3.95319Z" fill="white"/>
</svg>
