<svg width="45" height="43" viewBox="0 0 45 43" fill="none" xmlns="http://www.w3.org/2000/svg">
<path d="M0 22.0919H28.1308" stroke="#202020" stroke-opacity="0.7" stroke-width="2.72146"/>
<path d="M17.1089 7.9214H44.1239" stroke="#202020" stroke-opacity="0.7" stroke-width="2.72146"/>
<path d="M0 7.9214H6.2412" stroke="#202020" stroke-opacity="0.7" stroke-width="2.72146"/>
<path d="M24.7834 36.2627H44.1239" stroke="#202020" stroke-opacity="0.7" stroke-width="2.72146"/>
<path d="M0 36.2627H13.8976" stroke="#202020" stroke-opacity="0.7" stroke-width="2.72146"/>
<path d="M11.6751 12.9514C14.6811 12.9514 17.118 10.5767 17.118 7.64731C17.118 4.71797 14.6811 2.34326 11.6751 2.34326C8.66905 2.34326 6.23218 4.71797 6.23218 7.64731C6.23218 10.5767 8.66905 12.9514 11.6751 12.9514Z" stroke="#202020" stroke-opacity="0.7" stroke-width="2.72146"/>
<path d="M19.3405 41.5667C22.3465 41.5667 24.7834 39.192 24.7834 36.2627C24.7834 33.3333 22.3465 30.9586 19.3405 30.9586C16.3345 30.9586 13.8976 33.3333 13.8976 36.2627C13.8976 39.192 16.3345 41.5667 19.3405 41.5667Z" stroke="#202020" stroke-opacity="0.7" stroke-width="2.72146"/>
</svg>
