<svg width="64" height="66" viewBox="0 0 64 66" fill="none" xmlns="http://www.w3.org/2000/svg">
<mask id="path-1-outside-1_2658_18" maskUnits="userSpaceOnUse" x="15" y="16" width="35" height="37" fill="black">
<rect fill="white" x="15" y="16" width="35" height="37"/>
<path d="M30.52 49V36.82H19V32.92H30.52V20.74H34.42V32.92H46V36.82H34.42V49H30.52Z"/>
</mask>
<path d="M30.52 49V36.82H19V32.92H30.52V20.74H34.42V32.92H46V36.82H34.42V49H30.52Z" fill="white" fill-opacity="0.8"/>
<path d="M30.52 49H26.52V53H30.52V49ZM30.52 36.82H34.52V32.82H30.52V36.82ZM19 36.82H15V40.82H19V36.82ZM19 32.92V28.92H15V32.92H19ZM30.52 32.92V36.92H34.52V32.92H30.52ZM30.52 20.74V16.74H26.52V20.74H30.52ZM34.42 20.74H38.42V16.74H34.42V20.74ZM34.42 32.92H30.42V36.92H34.42V32.92ZM46 32.92H50V28.92H46V32.92ZM46 36.82V40.82H50V36.82H46ZM34.42 36.82V32.82H30.42V36.82H34.42ZM34.42 49V53H38.42V49H34.42ZM34.52 49V36.82H26.52V49H34.52ZM30.52 32.82H19V40.82H30.52V32.82ZM23 36.82V32.92H15V36.82H23ZM19 36.92H30.52V28.92H19V36.92ZM34.52 32.92V20.74H26.52V32.92H34.52ZM30.52 24.74H34.42V16.74H30.52V24.74ZM30.42 20.74V32.92H38.42V20.74H30.42ZM34.42 36.92H46V28.92H34.42V36.92ZM42 32.92V36.82H50V32.92H42ZM46 32.82H34.42V40.82H46V32.82ZM30.42 36.82V49H38.42V36.82H30.42ZM34.42 45H30.52V53H34.42V45Z" fill="black" fill-opacity="0.55" mask="url(#path-1-outside-1_2658_18)"/>
<circle cx="32" cy="34" r="30" stroke="black" stroke-opacity="0.55" stroke-width="4"/>
</svg>
