<svg width="56" height="62" viewBox="0 0 56 62" fill="none" xmlns="http://www.w3.org/2000/svg">
<path d="M47.7816 49.6717L39.9372 40.9425C42.4682 37.3438 43.8414 32.8999 43.8364 28.325C43.8364 24.2507 42.7538 20.2679 40.7257 16.8802C38.6976 13.4926 35.815 10.8522 32.4423 9.29307C29.0697 7.7339 25.3585 7.32595 21.7781 8.12081C18.1978 8.91566 14.909 10.8776 12.3277 13.7586C9.74637 16.6395 7.98847 20.3101 7.27629 24.3061C6.56411 28.3021 6.92963 32.4441 8.32662 36.2083C9.72362 39.9724 12.0893 43.1897 15.1246 45.4533C18.1599 47.7168 21.7285 48.925 25.379 48.925C29.478 48.9307 33.4598 47.398 36.6841 44.5732L44.5054 53.3282C44.7199 53.5696 44.9751 53.7612 45.2562 53.8919C45.5374 54.0226 45.8389 54.0899 46.1435 54.0899C46.4481 54.0899 46.7497 54.0226 47.0308 53.8919C47.312 53.7612 47.5671 53.5696 47.7816 53.3282C47.9979 53.0889 48.1695 52.8041 48.2866 52.4903C48.4038 52.1765 48.4641 51.8399 48.4641 51.5C48.4641 51.1601 48.4038 50.8235 48.2866 50.5097C48.1695 50.1959 47.9979 49.9111 47.7816 49.6717ZM11.536 28.325C11.536 25.2693 12.3479 22.2822 13.8689 19.7414C15.39 17.2007 17.552 15.2204 20.0815 14.051C22.611 12.8817 25.3944 12.5757 28.0796 13.1719C30.7649 13.768 33.2315 15.2395 35.1675 17.4002C37.1035 19.5609 38.4219 22.3138 38.956 25.3108C39.4902 28.3078 39.216 31.4143 38.1683 34.2374C37.1205 37.0606 35.3462 39.4735 33.0698 41.1712C30.7933 42.8689 28.1169 43.775 25.379 43.775C21.7076 43.775 18.1866 42.1472 15.5905 39.2498C12.9944 36.3523 11.536 32.4226 11.536 28.325Z" fill="white"/>
</svg>
