<svg width="31" height="22" viewBox="0 0 31 22" fill="none" xmlns="http://www.w3.org/2000/svg">
<path d="M27.803 6.40832L26.0042 8.87699C26.8717 10.4557 27.2964 12.2061 27.2402 13.9714C27.1841 15.7367 26.6488 17.4617 25.6825 18.9918H5.41414C4.15822 17.0037 3.6378 14.6992 3.93005 12.4199C4.2223 10.1407 5.31165 8.00805 7.03661 6.33817C8.76157 4.66829 11.0303 3.55007 13.5065 3.14928C15.9827 2.7485 18.5345 3.08648 20.7836 4.11313L23.489 2.47181C20.7346 0.860124 17.4674 0.137924 14.2101 0.420728C10.9528 0.703533 7.8935 1.975 5.52162 4.03175C3.14973 6.0885 1.60229 8.8117 1.12681 11.7657C0.651327 14.7198 1.27529 17.734 2.89888 20.3263C3.15407 20.7296 3.52051 21.065 3.96177 21.2991C4.40303 21.5332 4.90374 21.6579 5.41414 21.6607H25.6679C26.1833 21.6625 26.69 21.5401 27.1369 21.3058C27.5837 21.0714 27.9547 20.7335 28.2124 20.3263C29.5598 18.1964 30.236 15.7683 30.1663 13.3098C30.0966 10.8514 29.2838 8.45841 27.8176 6.39498L27.803 6.40832Z" fill="#AC0000"/>
<path d="M13.4864 11.5358C13.7581 11.784 14.0806 11.9808 14.4357 12.1151C14.7908 12.2494 15.1713 12.3186 15.5557 12.3186C15.94 12.3186 16.3206 12.2494 16.6757 12.1151C17.0307 11.9808 17.3533 11.784 17.6249 11.5358L25.9019 0.206665L13.4864 7.75944C13.2145 8.0073 12.9988 8.30164 12.8516 8.62563C12.7044 8.94962 12.6287 9.29691 12.6287 9.64763C12.6287 9.99836 12.7044 10.3456 12.8516 10.6696C12.9988 10.9936 13.2145 11.288 13.4864 11.5358Z" fill="#AC0000"/>
</svg>
