<svg width="33" height="25" viewBox="0 0 33 25" fill="none" xmlns="http://www.w3.org/2000/svg">
<path d="M11.3971 13.5281L9.41529 12.4993L11.833 9.01049H6.05176L10.5715 2.49121L12.5534 3.52004L10.1356 7.00887H15.9169L11.3971 13.5281Z" fill="#AC0000"/>
<path d="M32.375 3.00243H31.2188V0H28.9062V3.00243H27.75V9.00729H28.9062V20.5166C28.9062 20.9147 28.7235 21.2966 28.3983 21.5781C28.073 21.8597 27.6319 22.0178 27.1719 22.0178C26.7119 22.0178 26.2707 21.8597 25.9455 21.5781C25.6202 21.2966 25.4375 20.9147 25.4375 20.5166V12.0097C25.4375 11.7443 25.3157 11.4897 25.0988 11.302C24.882 11.1144 24.5879 11.0089 24.2812 11.0089H19.6562V1.00081C19.6562 0.735379 19.5344 0.480819 19.3176 0.293131C19.1008 0.105442 18.8067 0 18.5 0H3.46875C3.16209 0 2.868 0.105442 2.65116 0.293131C2.43432 0.480819 2.3125 0.735379 2.3125 1.00081V22.0178H0V24.0194H21.9688V22.0178H19.6562V13.0105H23.125V20.5166C23.125 21.4456 23.5514 22.3366 24.3103 22.9935C25.0692 23.6504 26.0986 24.0194 27.1719 24.0194C28.2452 24.0194 29.2745 23.6504 30.0334 22.9935C30.7924 22.3366 31.2188 21.4456 31.2188 20.5166V9.00729H32.375V3.00243ZM17.3438 22.0178H4.625V2.00162H17.3438V22.0178Z" fill="#AC0000"/>
</svg>
