<svg width="22" height="22" viewBox="0 0 22 22" fill="none" xmlns="http://www.w3.org/2000/svg">
<path d="M21.8323 4.49304L20.9937 2.43432C20.7806 1.922 20.3847 1.54168 19.9049 1.40024C17.2406 0.57047 14.1846 0.0628617 11.0337 0C7.81404 0.0644333 4.75798 0.57047 1.84078 1.46782C1.61395 1.54325 1.21802 1.92357 1.00906 2.42489L0.166344 4.49461C0.0632381 4.73349 0.00274948 5.01479 0.00137474 5.31181V6.67906C0 6.69792 0 6.71992 0 6.74349C0 7.35953 0.437168 7.85929 0.976067 7.85929C0.991189 7.85929 1.00631 7.85929 1.02143 7.85771H4.48303C5.04943 7.842 5.50309 7.31396 5.50309 6.66334C5.50309 6.63505 5.50172 6.60834 5.50034 6.58005V5.2631C5.50034 5.25681 5.50034 5.25052 5.50034 5.24424C5.50034 4.88435 5.66394 4.56847 5.91002 4.38618C7.2119 3.58783 8.75436 3.11951 10.3917 3.11951C10.6061 3.11951 10.8178 3.12737 11.0296 3.14309C11.1973 3.1258 11.4255 3.11637 11.6564 3.11637C13.2759 3.11637 14.8005 3.57369 16.1395 4.38146C16.3361 4.53704 16.4997 4.85292 16.4997 5.21281C16.4997 5.21909 16.4997 5.22695 16.4997 5.23324V6.58319C16.4983 6.60677 16.4969 6.63505 16.4969 6.66177C16.4969 7.31082 16.9506 7.84043 17.5156 7.85614H20.9813C20.9937 7.85614 21.0088 7.85771 21.0239 7.85771C21.5628 7.85771 22 7.35796 22 6.74192C22 6.71992 22 6.69634 21.9986 6.67434V5.31024C21.9972 5.01322 21.9368 4.73191 21.8295 4.48204L21.8323 4.49304Z" fill="white"/>
<path d="M16.4984 11.4706C15.6405 10.2181 15.1223 8.61829 15.1223 6.88173C15.1223 6.83773 15.1223 6.79373 15.1236 6.74972V6.28455H13.7489V7.85609H8.24993V6.28455H6.87519V6.80315C6.87519 6.84087 6.87656 6.88488 6.87656 6.92888C6.87656 8.66543 6.35829 10.2637 5.48945 11.5335L1.37622 17.2853V22H20.6226V17.2853L16.4984 11.4706ZM10.9994 18.8569C8.72147 18.8569 6.87519 16.7463 6.87519 14.1423C6.87519 11.5382 8.72147 9.42763 10.9994 9.42763C13.2774 9.42763 15.1236 11.5382 15.1236 14.1423C15.1236 16.7463 13.2774 18.8569 10.9994 18.8569Z" fill="white"/>
<path d="M13.7487 14.1422C13.7487 15.8788 12.5183 17.2853 10.9992 17.2853C9.48015 17.2853 8.24976 15.8788 8.24976 14.1422C8.24976 12.4057 9.48015 10.9991 10.9992 10.9991C12.5183 10.9991 13.7487 12.4057 13.7487 14.1422Z" fill="white"/>
</svg>
