<svg width="14" height="24" viewBox="0 0 14 24" fill="none" xmlns="http://www.w3.org/2000/svg">
<path d="M7 0C3.13556 0 0 3.45589 0 7.71429C0 14.5714 7 24 7 24C7 24 14 14.5714 14 7.71429C14 3.45589 10.8644 0 7 0ZM7 12C6.44621 12 5.90486 11.7989 5.4444 11.4222C4.98395 11.0454 4.62506 10.51 4.41314 9.88349C4.20121 9.257 4.14576 8.56763 4.2538 7.90255C4.36184 7.23747 4.62851 6.62656 5.0201 6.14706C5.41169 5.66757 5.9106 5.34103 6.45375 5.20874C6.99689 5.07644 7.55988 5.14434 8.07151 5.40384C8.58315 5.66334 9.02045 6.10279 9.32811 6.66662C9.63578 7.23044 9.8 7.89332 9.8 8.57143C9.79919 9.48044 9.50393 10.3519 8.979 10.9947C8.45408 11.6375 7.74236 11.999 7 12Z" fill="white"/>
</svg>
