<svg width="41" height="29" viewBox="0 0 41 29" fill="none" xmlns="http://www.w3.org/2000/svg">
<path d="M40.824 25.2V3.6C40.824 1.608 39.216 0 37.224 0H3.6C1.608 0 0 1.608 0 3.6V25.2C0 27.192 1.608 28.8 3.6 28.8H37.224C39.216 28.8 40.824 27.192 40.824 25.2ZM37.68 3.336C38.472 4.128 38.04 4.944 37.608 5.352L27.864 14.28L37.224 24.024C37.512 24.36 37.704 24.888 37.368 25.248C37.056 25.632 36.336 25.608 36.024 25.368L25.536 16.416L20.4 21.096L15.288 16.416L4.8 25.368C4.488 25.608 3.768 25.632 3.456 25.248C3.12 24.888 3.312 24.36 3.6 24.024L12.96 14.28L3.216 5.352C2.784 4.944 2.352 4.128 3.144 3.336C3.936 2.544 4.752 2.928 5.424 3.504L20.4 15.6L35.4 3.504C36.072 2.928 36.888 2.544 37.68 3.336Z" fill="white"/>
</svg>
