<svg width="35" height="39" viewBox="0 0 35 39" fill="none" xmlns="http://www.w3.org/2000/svg">
<path d="M17.5485 18.653C16.1085 18.653 15.1485 19.613 15.1485 21.053C15.1485 22.013 15.8685 22.733 16.5885 22.973L15.8685 26.333H18.9885L18.2685 22.973C19.2285 22.733 19.7085 22.013 19.7085 21.053C19.9485 19.613 18.9885 18.653 17.5485 18.653ZM17.7885 8.33296C16.1085 8.33296 14.4285 9.53296 14.4285 11.213V14.813H20.9085V11.213C20.6685 9.53296 19.4685 8.33296 17.7885 8.33296ZM17.5485 0.412964L0.748535 7.61296V14.813C0.988535 25.373 7.70853 34.733 17.5485 38.573C27.3885 34.733 34.1085 25.373 34.3485 14.813V7.61296L17.5485 0.412964ZM27.1485 26.813C27.1485 28.253 26.1885 29.213 24.7485 29.213H10.3485C8.90853 29.213 7.94853 28.253 7.94853 26.813V17.213C7.94853 15.773 8.90853 14.813 10.3485 14.813H11.0685V11.213C11.3085 7.85296 14.1885 5.21296 17.5485 5.21296C20.9085 5.21296 23.7885 7.85296 24.0285 11.213V14.813H24.7485C26.1885 14.813 27.1485 15.773 27.1485 17.213V26.813Z" fill="#DB0303"/>
</svg>
