<svg width="31" height="33" viewBox="0 0 31 33" fill="none" xmlns="http://www.w3.org/2000/svg">
<ellipse cx="15.5" cy="16.5" rx="15.5" ry="16.5" fill="#333333"/>
<path d="M19.6616 11.2402C19.6616 11.8446 19.5545 12.403 19.3403 12.9155C19.1261 13.4281 18.8049 13.8794 18.3765 14.2695C17.9557 14.652 17.4355 14.958 16.8159 15.1875V15.2563C17.8639 15.4782 18.6519 15.9295 19.1797 16.6104C19.7152 17.2912 19.9829 18.1785 19.9829 19.2725C19.9829 20.2822 19.7687 21.1581 19.3403 21.9001C18.9196 22.6422 18.3114 23.2159 17.5159 23.6213C16.7203 24.0268 15.7679 24.2295 14.6587 24.2295C13.932 24.2295 13.2703 24.1721 12.6736 24.0574C12.0769 23.9503 11.4458 23.7437 10.7803 23.4377V20.4773C11.354 20.8139 11.9316 21.0701 12.5129 21.2461C13.0943 21.422 13.6528 21.51 14.1882 21.51C15.045 21.51 15.6723 21.3035 16.0701 20.8904C16.4755 20.4696 16.6782 19.8844 16.6782 19.1348C16.6782 18.5763 16.5673 18.1212 16.3455 17.7693C16.1313 17.4097 15.7947 17.1458 15.3357 16.9775C14.8767 16.8016 14.28 16.7136 13.5457 16.7136H12.708V14.063H13.5686C14.2188 14.063 14.7658 13.9674 15.2095 13.7761C15.6532 13.5772 15.9859 13.2942 16.2078 12.927C16.4373 12.5522 16.552 12.1085 16.552 11.5959C16.552 10.984 16.3914 10.5173 16.0701 10.196C15.7564 9.87476 15.2936 9.71411 14.6816 9.71411C14.3757 9.71411 14.0773 9.75618 13.7866 9.84033C13.4959 9.92448 13.2052 10.0507 12.9146 10.219C12.6239 10.3796 12.3255 10.5862 12.0195 10.8386L10.7803 8.53223C11.4688 7.96615 12.1649 7.56836 12.8687 7.33887C13.5801 7.10173 14.3871 6.98315 15.2898 6.98315C16.6361 6.98315 17.6995 7.35034 18.4797 8.08472C19.2677 8.81144 19.6616 9.86328 19.6616 11.2402Z" fill="white"/>
</svg>
