<svg width="31" height="33" viewBox="0 0 31 33" fill="none" xmlns="http://www.w3.org/2000/svg">
<ellipse cx="15.5" cy="16.5" rx="15.5" ry="16.5" fill="#333333"/>
<path d="M19.8223 24H10.677V21.7166L13.9014 17.23C14.5898 16.2738 15.1139 15.482 15.4734 14.8547C15.8329 14.2198 16.0739 13.6614 16.1963 13.1794C16.3263 12.6899 16.3914 12.1926 16.3914 11.6877C16.3914 11.0987 16.2498 10.6321 15.9668 10.2878C15.6914 9.93595 15.2783 9.76001 14.7275 9.76001C14.2915 9.76001 13.8784 9.87476 13.4883 10.1042C13.0981 10.3337 12.6621 10.743 12.1802 11.332L10.6311 9.24365C11.0977 8.69287 11.5567 8.25301 12.0081 7.92407C12.467 7.58748 12.949 7.34652 13.4539 7.20117C13.9587 7.05583 14.5057 6.98315 15.0947 6.98315C15.9821 6.98315 16.7624 7.1744 17.4355 7.55688C18.1087 7.93172 18.6327 8.45573 19.0076 9.12891C19.3824 9.80208 19.5698 10.59 19.5698 11.4927C19.5698 12.2347 19.4819 12.9423 19.3059 13.6155C19.13 14.281 18.8316 14.9771 18.4109 15.7039C17.9902 16.4306 17.4126 17.2529 16.6782 18.1709L14.4407 21.1084V21.2231H19.8223V24Z" fill="white"/>
</svg>
