<svg width="40" height="42" viewBox="0 0 40 42" fill="none" xmlns="http://www.w3.org/2000/svg">
<path d="M39.5 21C39.5 32.3451 30.7468 41.5 20 41.5C9.25316 41.5 0.5 32.3451 0.5 21C0.5 9.65489 9.25316 0.5 20 0.5C30.7468 0.5 39.5 9.65489 39.5 21Z" fill="#252222" stroke="white"/>
<g filter="url(#filter0_d_307_4)">
<path d="M15.4371 32.5C17.3471 32.568 19.2505 32.2278 21.0349 31.4994C22.8192 30.771 24.4483 29.6692 25.8259 28.2592C27.2034 26.8492 28.3015 25.1595 29.0551 23.2901C29.8088 21.4206 30.2028 19.4093 30.2138 17.375C31.0891 16.2219 31.739 14.8942 32.1254 13.47C32.1543 13.3574 32.152 13.2384 32.1187 13.1273C32.0855 13.0161 32.0228 12.9176 31.9382 12.8435C31.8536 12.7694 31.7506 12.7229 31.6418 12.7096C31.5329 12.6964 31.4228 12.7169 31.3246 12.7687C30.8667 13.0034 30.3512 13.0792 29.8506 12.9854C29.3501 12.8917 28.8898 12.6331 28.5346 12.2462C28.0812 11.7176 27.5327 11.2913 26.9216 10.9925C26.3106 10.6937 25.6494 10.5286 24.9773 10.5068C24.3052 10.485 23.6358 10.607 23.0088 10.8656C22.3818 11.1243 21.8099 11.5143 21.3271 12.0125C20.666 12.694 20.1818 13.546 19.9215 14.4856C19.6613 15.4253 19.6337 16.4207 19.8417 17.375C15.5146 17.65 12.5438 15.4637 10.1671 12.4662C10.0957 12.3801 10.0023 12.3181 9.89832 12.2876C9.79433 12.2571 9.68424 12.2595 9.58151 12.2945C9.47877 12.3294 9.38783 12.3955 9.31979 12.4846C9.25175 12.5737 9.20956 12.682 9.19837 12.7962C8.7456 15.4698 9.07221 18.2268 10.1343 20.6971C11.1965 23.1673 12.9432 25.2324 15.14 26.615C13.6671 28.4132 11.5986 29.5364 9.36628 29.75C9.24669 29.7711 9.13629 29.8315 9.05054 29.9227C8.96478 30.0139 8.90797 30.1314 8.88804 30.2587C8.86811 30.386 8.88606 30.5167 8.93939 30.6326C8.99272 30.7485 9.07875 30.8437 9.18545 30.905C11.1275 31.9381 13.2661 32.4837 15.4371 32.5Z" fill="white"/>
</g>
<defs>
<filter id="filter0_d_307_4" x="4.88013" y="10.5043" width="31.2654" height="30.0042" filterUnits="userSpaceOnUse" color-interpolation-filters="sRGB">
<feFlood flood-opacity="0" result="BackgroundImageFix"/>
<feColorMatrix in="SourceAlpha" type="matrix" values="0 0 0 0 0 0 0 0 0 0 0 0 0 0 0 0 0 0 127 0" result="hardAlpha"/>
<feOffset dy="4"/>
<feGaussianBlur stdDeviation="2"/>
<feComposite in2="hardAlpha" operator="out"/>
<feColorMatrix type="matrix" values="0 0 0 0 0 0 0 0 0 0 0 0 0 0 0 0 0 0 0.25 0"/>
<feBlend mode="normal" in2="BackgroundImageFix" result="effect1_dropShadow_307_4"/>
<feBlend mode="normal" in="SourceGraphic" in2="effect1_dropShadow_307_4" result="shape"/>
</filter>
</defs>
</svg>
