<svg width="31" height="22" viewBox="0 0 31 22" fill="none" xmlns="http://www.w3.org/2000/svg">
<path d="M30.5489 3.62639C30.4055 3.51299 30.2348 3.42306 30.0467 3.36184C29.8586 3.30061 29.6568 3.26931 29.4532 3.26976H28.3593V1.2489C28.3588 0.927427 28.1957 0.619228 27.9057 0.391914C27.6157 0.164601 27.2225 0.036738 26.8124 0.036377H4.55211C3.34482 0.0363904 2.18699 0.412328 1.3333 1.08149C0.479619 1.75065 1.70935e-05 2.65823 0 3.60457V17.4852C1.70935e-05 18.4315 0.479619 19.3391 1.3333 20.0083C2.18699 20.6774 3.34482 21.0534 4.55211 21.0534H29.3923C29.8014 21.0528 30.1937 20.9253 30.4834 20.6989C30.7732 20.4725 30.937 20.1655 30.9391 19.8448L31 4.48642C31.0013 4.32679 30.962 4.16855 30.8846 4.0209C30.8071 3.87326 30.693 3.73916 30.5489 3.62639ZM28.8783 19.4367H4.55211C3.89183 19.4367 3.25858 19.2311 2.79169 18.8651C2.32479 18.4991 2.06249 18.0028 2.06249 17.4852V3.60457C2.06249 3.087 2.32479 2.59063 2.79169 2.22465C3.25858 1.85867 3.89183 1.65307 4.55211 1.65307H26.2968V3.26976H4.64061V4.88646H28.9359L28.8783 19.4367Z" fill="white"/>
<path d="M21.2969 12.9491H19.2344V14.5658H21.2969V12.9491Z" fill="white"/>
</svg>
