<svg width="40" height="43" viewBox="0 0 40 43" fill="none" xmlns="http://www.w3.org/2000/svg">
<path d="M39.5 21C39.5 32.3451 30.7468 41.5 20 41.5C9.25316 41.5 0.5 32.3451 0.5 21C0.5 9.65489 9.25316 0.5 20 0.5C30.7468 0.5 39.5 9.65489 39.5 21Z" fill="#252222" stroke="white"/>
<g filter="url(#filter0_d_307_3)">
<path d="M27.0831 8.24996C27.0831 8.05104 27.0085 7.86028 26.8756 7.71963C26.7428 7.57898 26.5626 7.49996 26.3748 7.49996H22.8331C21.0497 7.40589 19.3036 8.06304 17.9764 9.32782C16.6491 10.5926 15.8486 12.3622 15.7498 14.2499V18.2999H12.2081C12.0202 18.2999 11.8401 18.379 11.7072 18.5196C11.5744 18.6603 11.4998 18.851 11.4998 19.0499V22.9499C11.4998 23.1488 11.5744 23.3396 11.7072 23.4803C11.8401 23.6209 12.0202 23.6999 12.2081 23.6999H15.7498V33.7499C15.7498 33.9488 15.8244 34.1396 15.9572 34.2802C16.0901 34.4209 16.2702 34.4999 16.4581 34.4999H20.7081C20.896 34.4999 21.0761 34.4209 21.209 34.2802C21.3418 34.1396 21.4164 33.9488 21.4164 33.7499V23.6999H25.1281C25.2856 23.7023 25.4394 23.649 25.5651 23.5485C25.6908 23.448 25.7813 23.306 25.8223 23.1449L26.8423 19.2449C26.8704 19.1341 26.8742 19.0179 26.8533 18.9053C26.8324 18.7927 26.7874 18.6867 26.7217 18.5954C26.656 18.5041 26.5714 18.43 26.4744 18.3788C26.3774 18.3276 26.2706 18.3006 26.1623 18.2999H21.4164V14.2499C21.4517 13.8787 21.6163 13.5346 21.8783 13.285C22.1402 13.0354 22.4807 12.8981 22.8331 12.8999H26.3748C26.5626 12.8999 26.7428 12.8209 26.8756 12.6803C27.0085 12.5396 27.0831 12.3489 27.0831 12.1499V8.24996Z" fill="white"/>
</g>
<defs>
<filter id="filter0_d_307_3" x="7.49976" y="7.49109" width="23.5833" height="35.0088" filterUnits="userSpaceOnUse" color-interpolation-filters="sRGB">
<feFlood flood-opacity="0" result="BackgroundImageFix"/>
<feColorMatrix in="SourceAlpha" type="matrix" values="0 0 0 0 0 0 0 0 0 0 0 0 0 0 0 0 0 0 127 0" result="hardAlpha"/>
<feOffset dy="4"/>
<feGaussianBlur stdDeviation="2"/>
<feComposite in2="hardAlpha" operator="out"/>
<feColorMatrix type="matrix" values="0 0 0 0 0 0 0 0 0 0 0 0 0 0 0 0 0 0 0.25 0"/>
<feBlend mode="normal" in2="BackgroundImageFix" result="effect1_dropShadow_307_3"/>
<feBlend mode="normal" in="SourceGraphic" in2="effect1_dropShadow_307_3" result="shape"/>
</filter>
</defs>
</svg>
