<svg width="14" height="26" viewBox="0 0 14 26" fill="none" xmlns="http://www.w3.org/2000/svg">
<path d="M7 0.920898C3.13556 0.920898 0 4.46797 0 8.83872C0 15.8768 7 25.5541 7 25.5541C7 25.5541 14 15.8768 14 8.83872C14 4.46797 10.8644 0.920898 7 0.920898ZM7 13.2375C6.44621 13.2375 5.90486 13.0311 5.4444 12.6444C4.98395 12.2578 4.62506 11.7082 4.41314 11.0651C4.20121 10.4221 4.14576 9.71457 4.2538 9.03195C4.36184 8.34932 4.62851 7.72229 5.0201 7.23014C5.41169 6.738 5.9106 6.40284 6.45375 6.26706C6.99689 6.13128 7.55988 6.20097 8.07151 6.46731C8.58315 6.73366 9.02045 7.1847 9.32811 7.76341C9.63578 8.34211 9.8 9.02248 9.8 9.71847C9.79919 10.6515 9.50393 11.546 8.979 12.2057C8.45408 12.8654 7.74236 13.2365 7 13.2375Z" fill="white"/>
</svg>
