<svg width="40" height="42" viewBox="0 0 40 42" fill="none" xmlns="http://www.w3.org/2000/svg">
<path d="M39.5 21C39.5 32.3451 30.7468 41.5 20 41.5C9.25316 41.5 0.5 32.3451 0.5 21C0.5 9.65489 9.25316 0.5 20 0.5C30.7468 0.5 39.5 9.65489 39.5 21Z" fill="#252222" stroke="white"/>
<g filter="url(#filter0_d_47_4)">
<path d="M14.4371 32.2254C16.3471 32.2953 18.2505 31.9461 20.0349 31.1985C21.8192 30.4509 23.4483 29.32 24.8259 27.8728C26.2034 26.4256 27.3015 24.6913 28.0551 22.7725C28.8088 20.8538 29.2028 18.7894 29.2138 16.7014C30.0891 15.5179 30.739 14.1552 31.1254 12.6934C31.1543 12.5779 31.152 12.4557 31.1187 12.3416C31.0855 12.2275 31.0228 12.1264 30.9382 12.0503C30.8536 11.9743 30.7506 11.9266 30.6418 11.913C30.5329 11.8993 30.4228 11.9204 30.3246 11.9736C29.8667 12.2144 29.3512 12.2922 28.8506 12.196C28.3501 12.0998 27.8898 11.8345 27.5346 11.4373C27.0812 10.8948 26.5327 10.4572 25.9216 10.1506C25.3106 9.84388 24.6494 9.67433 23.9773 9.65196C23.3052 9.62959 22.6358 9.75484 22.0088 10.0203C21.3818 10.2858 20.8099 10.686 20.3271 11.1974C19.666 11.8969 19.1818 12.7714 18.9215 13.7358C18.6613 14.7003 18.6337 15.7219 18.8417 16.7014C14.5146 16.9836 11.5438 14.7397 9.16712 11.6631C9.09572 11.5748 9.00232 11.5111 8.89832 11.4798C8.79433 11.4484 8.68424 11.4509 8.58151 11.4868C8.47877 11.5227 8.38783 11.5906 8.31979 11.682C8.25175 11.7735 8.20956 11.8846 8.19837 12.0018C7.7456 14.746 8.07221 17.5757 9.13433 20.1111C10.1965 22.6465 11.9432 24.7661 14.14 26.1852C12.6671 28.0309 10.5986 29.1837 8.36628 29.4029C8.24669 29.4246 8.13629 29.4865 8.05054 29.5802C7.96478 29.6738 7.90797 29.7943 7.88804 29.925C7.86811 30.0556 7.88606 30.1898 7.93939 30.3088C7.99272 30.4277 8.07875 30.5255 8.18545 30.5884C10.1275 31.6487 12.2661 32.2088 14.4371 32.2254Z" fill="white"/>
</g>
<defs>
<filter id="filter0_d_47_4" x="3.88013" y="9.64941" width="31.2654" height="30.5847" filterUnits="userSpaceOnUse" color-interpolation-filters="sRGB">
<feFlood flood-opacity="0" result="BackgroundImageFix"/>
<feColorMatrix in="SourceAlpha" type="matrix" values="0 0 0 0 0 0 0 0 0 0 0 0 0 0 0 0 0 0 127 0" result="hardAlpha"/>
<feOffset dy="4"/>
<feGaussianBlur stdDeviation="2"/>
<feComposite in2="hardAlpha" operator="out"/>
<feColorMatrix type="matrix" values="0 0 0 0 0 0 0 0 0 0 0 0 0 0 0 0 0 0 0.25 0"/>
<feBlend mode="normal" in2="BackgroundImageFix" result="effect1_dropShadow_47_4"/>
<feBlend mode="normal" in="SourceGraphic" in2="effect1_dropShadow_47_4" result="shape"/>
</filter>
</defs>
</svg>
